<svg width="533" height="199" viewBox="0 0 533 199" fill="none" xmlns="http://www.w3.org/2000/svg">
<path d="M51.11 185.47C49.9 182.46 47.01 175.14 45.94 171.7H45.89V185.47H44.02V168.88H46.74C46.74 168.88 51.36 181.08 52.07 182.95C52.76 181.08 57.26 168.88 57.26 168.88H59.96V185.47H58.09V171.7H58.04C56.88 175.23 53.85 183.03 52.88 185.47H51.11Z" fill="#1E2945"/>
<path d="M83.1 168.6C87.48 168.6 90.49 171.89 90.49 177.18C90.49 182.46 87.48 185.76 83.1 185.76C78.72 185.76 75.71 182.47 75.71 177.18C75.7 171.89 78.71 168.6 83.1 168.6ZM83.1 184.07C86.61 184.07 88.36 181.04 88.36 177.18C88.36 173.32 86.61 170.28 83.1 170.28C79.59 170.28 77.84 173.31 77.84 177.18C77.84 181.03 79.59 184.07 83.1 184.07Z" fill="#1E2945"/>
<path d="M106.22 168.88H112C115.32 168.88 117 170.42 117 172.98C117 175.37 115.51 176.39 114.3 176.84C116.05 177.1 117.69 178.31 117.69 180.73C117.69 183.53 115.49 185.47 112.31 185.47H106.22V168.88ZM108.25 170.49V176.11H111.35C113.65 176.11 114.93 175.11 114.93 173.15C114.93 171.37 113.86 170.5 111.61 170.5H108.25V170.49ZM108.25 183.86H111.59C114.69 183.86 115.62 182.39 115.62 180.76C115.62 178.56 113.94 177.73 111.52 177.73H108.25V183.86Z" fill="#1E2945"/>
<path d="M133.36 168.88H135.42V185.47H133.36V168.88Z" fill="#1E2945"/>
<path d="M152.02 168.88H154.08V183.81H161.43V185.47H152.02V168.88Z" fill="#1E2945"/>
<path d="M176.41 168.88H178.47V185.47H176.41V168.88Z" fill="#1E2945"/>
<path d="M193.48 168.88H205.35V170.54H200.45V185.47H198.39V170.54H193.49V168.88H193.48Z" fill="#1E2945"/>
<path d="M220.37 185.47V168.88H230.08V170.54H222.43V176.08H229.58V177.74H222.43V183.81H230.25V185.47H220.37ZM228.09 165.21L223.87 167.75L223.18 166.71L227.11 163.77L228.09 165.21Z" fill="#1E2945"/>
<path d="M276.91 185.47H274L272.53 181.3H266.27L264.8 185.47H262.05L268.07 168.87H270.92L276.91 185.47ZM269.35 172.14C269.3 172.3 269.23 172.52 269.15 172.79C269.06 173.07 268.96 173.38 268.84 173.74C268.72 174.1 268.59 174.48 268.46 174.88C268.33 175.28 268.19 175.68 268.04 176.08C267.72 177.01 267.38 178.02 267.02 179.09H271.76C271.38 178.02 271.03 177.01 270.72 176.08C270.58 175.68 270.44 175.29 270.31 174.88C270.18 174.48 270.05 174.1 269.93 173.74C269.81 173.38 269.7 173.07 269.61 172.79C269.52 172.51 269.44 172.29 269.4 172.14H269.35Z" fill="#FF5100"/>
<path d="M291.56 168.87H294.36V183.17H301.66V185.47H291.56V168.87Z" fill="#FF5100"/>
<path d="M312.71 168.87H325.23V171.17H320.37V185.47H317.57V171.17H312.71V168.87Z" fill="#FF5100"/>
<path d="M339.97 185.47V168.87H350.47V171.17H342.74V175.77H349.95V178.07H342.74V183.17H350.61V185.47H339.97Z" fill="#FF5100"/>
<path d="M377.81 173.61C377.81 174.84 377.49 175.86 376.86 176.66C376.23 177.46 375.38 178.02 374.32 178.33L378.47 185.47H375.27L371.43 178.67H368.7V185.47H365.93V168.87H371.88C372.61 168.87 373.32 168.95 374.03 169.1C374.73 169.25 375.36 169.51 375.93 169.87C376.49 170.23 376.95 170.72 377.29 171.33C377.64 171.93 377.81 172.7 377.81 173.61ZM374.97 173.68C374.97 172.78 374.67 172.14 374.07 171.75C373.47 171.36 372.59 171.17 371.44 171.17H368.71V176.41H371.63C372.8 176.41 373.65 176.17 374.18 175.69C374.7 175.2 374.97 174.54 374.97 173.68Z" fill="#FF5100"/>
<path d="M393.55 168.87H396.49C397.63 170.67 398.7 172.36 399.72 173.94C400.15 174.62 400.58 175.31 401.02 176C401.46 176.7 401.89 177.37 402.29 178C402.69 178.64 403.06 179.23 403.39 179.77C403.72 180.31 404 180.74 404.22 181.07H404.29V168.86H406.92V185.46H403.98C402.86 183.69 401.8 182.02 400.8 180.46C400.37 179.8 399.94 179.11 399.5 178.41C399.06 177.71 398.63 177.04 398.23 176.4C397.83 175.76 397.45 175.17 397.12 174.62C396.78 174.08 396.49 173.62 396.25 173.26H396.18V185.47H393.55V168.87Z" fill="#FF5100"/>
<path d="M436.44 185.47H433.52L432.05 181.3H425.79L424.32 185.47H421.57L427.59 168.87H430.44L436.44 185.47ZM428.88 172.14C428.83 172.3 428.76 172.52 428.68 172.79C428.59 173.07 428.49 173.38 428.37 173.74C428.25 174.1 428.12 174.48 427.99 174.88C427.86 175.28 427.72 175.68 427.57 176.08C427.25 177.01 426.91 178.02 426.55 179.09H431.29C430.91 178.02 430.56 177.01 430.25 176.08C430.11 175.68 429.97 175.29 429.84 174.88C429.71 174.48 429.58 174.1 429.46 173.74C429.34 173.38 429.24 173.07 429.14 172.79C429.05 172.51 428.97 172.29 428.93 172.14H428.88Z" fill="#FF5100"/>
<path d="M447.96 168.87H460.48V171.17H455.62V185.47H452.82V171.17H447.96V168.87Z" fill="#FF5100"/>
<path d="M475.23 168.87H478.03V185.47H475.23V168.87Z" fill="#FF5100"/>
<path d="M495.64 168.87C496.27 170.64 496.87 172.35 497.44 173.99C497.68 174.69 497.93 175.4 498.19 176.15C498.45 176.9 498.7 177.62 498.94 178.32C499.18 179.02 499.4 179.69 499.6 180.32C499.81 180.95 499.99 181.51 500.15 182H500.2C500.34 181.51 500.52 180.95 500.73 180.32C500.94 179.69 501.17 179.02 501.42 178.32C501.66 177.62 501.92 176.89 502.18 176.15C502.44 175.41 502.69 174.69 502.93 173.99C503.5 172.35 504.1 170.64 504.73 168.87H507.6L501.46 185.47H498.71L492.67 168.87H495.64Z" fill="#FF5100"/>
<path d="M522.19 185.47V168.87H532.69V171.17H524.96V175.77H532.17V178.07H524.96V183.17H532.83V185.47H522.19Z" fill="#FF5100"/>
<path d="M532.54 134.68L511.72 66.5701L511.55 66.6301L511.57 66.5601H469.25L458.94 100.73H484.99L491.08 134.64L532.54 134.68Z" fill="#FF5100"/>
<path d="M433.07 8.06006L394.36 134.62L435.82 134.64L474.53 8.06006H433.07Z" fill="#FF5100"/>
<path d="M58.58 134.72C51.24 114.02 34.3 63.5802 27.15 40.0602H26.59V134.72H0.610001V2.99023H40.13C40.13 2.99023 68.55 88.0502 72.5 101.04C76.26 88.0502 103.74 2.99023 103.74 2.99023H143.07V134.72H117.1V40.0602H116.54C109.01 63.5802 90.57 118.72 84.92 134.72H58.58Z" fill="#1E2945"/>
<path d="M217.58 0.350098C256.16 0.350098 281.75 26.1301 281.75 68.8501C281.75 111.57 256.16 137.35 217.58 137.35C179 137.35 153.41 111.57 153.41 68.8501C153.41 26.1301 179 0.350098 217.58 0.350098ZM217.58 114.02C241.29 114.02 252.58 95.5801 252.58 68.8501C252.58 42.1301 241.29 23.6901 217.58 23.6901C193.87 23.6901 182.58 42.1301 182.58 68.8501C182.58 95.5801 193.87 114.02 217.58 114.02Z" fill="#1E2945"/>
<path d="M292.09 2.99023H349.3C373.95 2.99023 388.26 17.6702 388.26 37.4302C388.26 53.4302 378.47 62.2702 368.69 65.8502C379.98 67.5402 394.1 75.0702 394.1 95.3902C394.1 117.97 376.22 134.72 351.76 134.72H292.1V2.99023H292.09ZM319.57 25.9502V56.4402H339.33C352.88 56.4402 359.28 52.4902 359.28 40.8202C359.28 30.0902 354.01 25.9502 340.84 25.9502H319.57ZM319.57 111.76H342.15C360.03 111.76 365.11 105.93 365.11 95.2002C365.11 82.5902 357.21 79.0202 341.78 79.0202H319.57V111.76Z" fill="#1E2945"/>
<path d="M26.57 180.83L0.679993 188.72V181.47L26.57 173.58V180.83Z" fill="#FF5100"/>
<path d="M26.57 190.37L0.679993 198.26V191.01L26.57 183.12V190.37Z" fill="#FF5100"/>
<path d="M26.57 171.29L0.679993 179.18V171.94L26.57 164.04V171.29Z" fill="#FF5100"/>
</svg>