<svg width="283" height="105" viewBox="0 0 283 105" fill="none" xmlns="http://www.w3.org/2000/svg">
<g clip-path="url(#clip0_165_98)">
<path d="M26.8525 98.209C26.2091 96.612 24.6724 92.7284 24.1035 90.9034H24.0769V98.209H23.0825V89.4072H24.5288C24.5288 89.4072 26.9855 95.8799 27.363 96.872C27.7299 95.8799 30.1227 89.4072 30.1227 89.4072H31.5584V98.209H30.564V90.9034H30.5374C29.9206 92.7762 28.3095 96.9144 27.7937 98.209H26.8472H26.8525Z" fill="#1E2945"/>
<path d="M43.8575 89.2588C46.1865 89.2588 47.787 91.0043 47.787 93.8109C47.787 96.6174 46.1865 98.3629 43.8575 98.3629C41.5285 98.3629 39.928 96.6174 39.928 93.8109C39.928 91.0043 41.5285 89.2588 43.8575 89.2588ZM43.8575 97.4716C45.7239 97.4716 46.6544 95.8641 46.6544 93.8162C46.6544 91.7683 45.7239 90.1554 43.8575 90.1554C41.9911 90.1554 41.0606 91.763 41.0606 93.8162C41.0606 95.8694 41.9911 97.4716 43.8575 97.4716Z" fill="#1E2945"/>
<path d="M56.1511 89.4126H59.2246C60.9899 89.4126 61.8832 90.2296 61.8832 91.5878C61.8832 92.8558 61.0909 93.397 60.4475 93.6357C61.3781 93.7737 62.2501 94.4156 62.2501 95.6996C62.2501 97.1851 61.0803 98.2143 59.3894 98.2143H56.1511V89.4126ZM57.2359 90.2668V93.2484H58.8842C60.1072 93.2484 60.7879 92.7179 60.7879 91.678C60.7879 90.7337 60.2189 90.2721 59.0225 90.2721H57.2359V90.2668ZM57.2359 97.3548H59.0119C60.6602 97.3548 61.1548 96.5749 61.1548 95.7102C61.1548 94.543 60.2614 94.1026 58.9746 94.1026H57.2359V97.3601V97.3548Z" fill="#1E2945"/>
<path d="M70.5879 89.4126H71.6833V98.2143H70.5879V89.4126Z" fill="#1E2945"/>
<path d="M80.51 89.4126H81.6054V97.3336H85.5136V98.2143H80.51V89.4126Z" fill="#1E2945"/>
<path d="M93.479 89.4126H94.5744V98.2143H93.479V89.4126Z" fill="#1E2945"/>
<path d="M102.556 89.4126H108.867V90.2933H106.262V98.2143H105.166V90.2933H102.561V89.4126H102.556Z" fill="#1E2945"/>
<path d="M116.854 98.2092V89.4074H122.017V90.2881H117.949V93.2274H121.751V94.1081H117.949V97.3285H122.108V98.2092H116.854ZM120.959 87.4656L118.715 88.8132L118.348 88.2615L120.438 86.7017L120.954 87.4656H120.959Z" fill="#1E2945"/>
<path d="M146.918 98.2089H145.366L144.584 95.9965H141.255L140.474 98.2089H139.011L142.213 89.4019H143.728L146.918 98.2089ZM142.898 91.142C142.872 91.2269 142.835 91.3437 142.792 91.4869C142.744 91.6355 142.691 91.7999 142.627 91.9909C142.563 92.1819 142.494 92.3835 142.425 92.5957C142.356 92.808 142.282 93.0202 142.202 93.2324C142.032 93.7258 141.851 94.2616 141.66 94.8293H144.18C143.978 94.2616 143.792 93.7258 143.627 93.2324C143.552 93.0202 143.478 92.8133 143.409 92.5957C143.34 92.3782 143.271 92.1819 143.207 91.9909C143.143 91.7999 143.085 91.6355 143.037 91.4869C142.989 91.3383 142.946 91.2216 142.925 91.142H142.898Z" fill="#FF5100"/>
<path d="M154.708 89.4072H156.197V96.994H160.079V98.2143H154.708V89.4072Z" fill="#FF5100"/>
<path d="M165.955 89.4072H172.612V90.6275H170.028V98.2143H168.539V90.6275H165.955V89.4072Z" fill="#FF5100"/>
<path d="M180.45 98.2089V89.4019H186.033V90.6221H181.923V93.0626H185.756V94.2829H181.923V96.9886H186.107V98.2089H180.45Z" fill="#FF5100"/>
<path d="M200.57 91.922C200.57 92.5746 200.4 93.1157 200.065 93.5402C199.73 93.9646 199.278 94.2617 198.715 94.4262L200.921 98.2143H199.22L197.178 94.6066H195.726V98.2143H194.253V89.4072H197.417C197.805 89.4072 198.183 89.4497 198.56 89.5292C198.933 89.6088 199.268 89.7468 199.571 89.9378C199.869 90.1288 200.113 90.3887 200.294 90.7124C200.48 91.036 200.57 91.4392 200.57 91.9273V91.922ZM199.055 91.9591C199.055 91.4817 198.895 91.1421 198.576 90.9352C198.257 90.7283 197.789 90.6275 197.178 90.6275H195.726V93.4075H197.279C197.901 93.4075 198.353 93.2802 198.635 93.0255C198.917 92.7709 199.055 92.4154 199.055 91.9644V91.9591Z" fill="#FF5100"/>
<path d="M208.94 89.4072H210.503C211.109 90.3621 211.678 91.2588 212.221 92.097C212.449 92.4578 212.678 92.8239 212.912 93.1899C213.146 93.5613 213.375 93.9168 213.587 94.251C213.8 94.5853 213.997 94.9036 214.172 95.1901C214.348 95.4766 214.497 95.7047 214.614 95.8798H214.651V89.4019H216.049V98.2089H214.486C213.89 97.2698 213.327 96.3838 212.795 95.5562C212.566 95.206 212.338 94.8399 212.104 94.4686C211.87 94.0972 211.641 93.7417 211.428 93.4022C211.216 93.0626 211.014 92.7496 210.838 92.4578C210.657 92.1713 210.503 91.9273 210.376 91.7363H210.338V98.2142H208.94V89.4072Z" fill="#FF5100"/>
<path d="M231.746 98.2089H230.193L229.412 95.9965H226.083L225.301 98.2089H223.839L227.04 89.4019H228.556L231.746 98.2089ZM227.721 91.142C227.694 91.2269 227.657 91.3437 227.614 91.4869C227.567 91.6355 227.513 91.7999 227.45 91.9909C227.386 92.1819 227.317 92.3835 227.248 92.5957C227.178 92.808 227.104 93.0202 227.024 93.2324C226.854 93.7258 226.673 94.2616 226.482 94.8293H229.002C228.8 94.2616 228.614 93.7258 228.449 93.2324C228.375 93.0202 228.3 92.8133 228.231 92.5957C228.162 92.3782 228.093 92.1819 228.029 91.9909C227.965 91.7999 227.907 91.6355 227.859 91.4869C227.811 91.3383 227.769 91.2216 227.747 91.142H227.721Z" fill="#FF5100"/>
<path d="M237.872 89.4072H244.529V90.6275H241.945V98.2143H240.456V90.6275H237.872V89.4072Z" fill="#FF5100"/>
<path d="M252.367 89.4072H253.856V98.2143H252.367V89.4072Z" fill="#FF5100"/>
<path d="M263.225 89.4072C263.56 90.3463 263.879 91.2535 264.182 92.1236C264.309 92.495 264.442 92.8717 264.581 93.2696C264.719 93.6675 264.852 94.0495 264.979 94.4209C265.107 94.7922 265.224 95.1477 265.33 95.482C265.442 95.8162 265.538 96.1133 265.623 96.3733H265.649C265.724 96.1133 265.82 95.8162 265.931 95.482C266.043 95.1477 266.165 94.7922 266.298 94.4209C266.426 94.0495 266.564 93.6622 266.702 93.2696C266.841 92.877 266.973 92.495 267.101 92.1236C267.404 91.2535 267.723 90.3463 268.058 89.4072H269.584L266.319 98.2143H264.857L261.646 89.4072H263.235H263.225Z" fill="#FF5100"/>
<path d="M277.342 98.2089V89.4019H282.926V90.6221H278.815V93.0626H282.649V94.2829H278.815V96.9886H283V98.2089H277.342Z" fill="#FF5100"/>
<path d="M282.846 71.2681L271.775 35.1327L271.679 35.1646L271.695 35.1274H249.187L243.705 53.2508H257.562L260.8 71.2469L282.846 71.2681Z" fill="#FF5100"/>
<path d="M229.949 4.09033L209.371 71.236L231.416 71.2466L251.994 4.09033H229.949Z" fill="#FF5100"/>
<path d="M30.8194 71.2894C26.9164 60.3071 17.9088 33.5465 14.1069 21.0681H13.8092V71.2894H0V1.39551H21.0142C21.0142 1.39551 36.1261 46.5236 38.2264 53.4154C40.2258 46.5236 54.8378 1.39551 54.8378 1.39551H75.751V71.2841H61.9418V21.0681H61.644C57.6401 33.5465 47.8349 62.8007 44.8306 71.2894H30.8194Z" fill="#1E2945"/>
<path d="M115.37 0C135.885 0 149.492 13.6774 149.492 36.3423C149.492 59.0071 135.885 72.6846 115.37 72.6846C94.8561 72.6846 81.249 59.0071 81.249 36.3423C81.249 13.6774 94.8561 0 115.37 0ZM115.37 60.307C127.978 60.307 133.981 50.5237 133.981 36.3423C133.981 22.1608 127.978 12.3829 115.37 12.3829C102.763 12.3829 96.7597 22.1661 96.7597 36.3423C96.7597 50.5184 102.763 60.307 115.37 60.307Z" fill="#1E2945"/>
<path d="M154.99 1.39551H185.411C198.518 1.39551 206.127 9.1839 206.127 19.6674C206.127 28.1562 200.921 32.8462 195.721 34.7455C201.724 35.6421 209.233 39.6371 209.233 50.4178C209.233 62.3975 199.725 71.2841 186.719 71.2841H154.996V1.39551H154.99ZM169.602 13.5768V29.7531H180.109C187.314 29.7531 190.718 27.6574 190.718 21.466C190.718 15.7733 187.915 13.5768 180.912 13.5768H169.602ZM169.602 59.1081H181.609C191.116 59.1081 193.818 56.015 193.818 50.3223C193.818 43.6321 189.617 41.7381 181.412 41.7381H169.602V59.1134V59.1081Z" fill="#1E2945"/>
<path d="M13.7986 95.7527L0.0319824 99.9387V96.0922L13.7986 91.9062V95.7527Z" fill="#FF5100"/>
<path d="M13.7986 100.814L0.0319824 105V101.154L13.7986 96.9678V100.814Z" fill="#FF5100"/>
<path d="M13.7986 90.6911L0.0319824 94.8771V91.0307L13.7986 86.8394V90.6911Z" fill="#FF5100"/>
</g>
<defs>
<clipPath id="clip0_165_98">
<rect width="283" height="105" fill="white"/>
</clipPath>
</defs>
</svg>
