<svg width="344" height="75" viewBox="0 0 344 75" fill="none" xmlns="http://www.w3.org/2000/svg">
<g clip-path="url(#clip0_165_130)">
<path d="M86.8411 55.2807V28.102H86.6217C85.671 28.9883 82.1243 29.0621 80.6251 29.0621H78.029V29.2837C81.0273 31.1301 80.6251 33.8996 80.6251 37.3339V48.8184C80.6251 54.5791 75.0307 58.6042 70.5333 58.6042C64.6098 58.6042 62.1234 54.3575 62.1234 47.489V28.102H61.9406C60.9899 28.9883 57.4066 29.0621 55.944 29.0621H53.3479V29.2837C56.3462 31.1301 55.944 33.8996 55.944 37.3339V48.7815C55.944 59.2689 60.4414 64.2541 68.5222 64.2541C73.2756 64.2541 78.2118 62.5555 80.6617 58.4565V63.4048H89.4372V63.1832C86.4389 61.4846 86.8411 58.715 86.8411 55.2807ZM100.48 40.7682C101.284 36.1153 104.721 33.1242 109.292 33.1242C114.228 33.1242 117.373 35.5614 118.104 40.7682H100.48ZM125.271 45.0887C125.526 35.4875 119.201 28.2497 109.913 28.2497C99.7484 28.2497 92.8377 35.7091 92.8377 46.0488C92.8377 56.3886 100.809 64.4019 112.436 64.4019C115.654 64.4019 118.908 63.8849 121.87 62.5555L125.271 55.5761H125.051C121.907 58.2719 117.958 59.5643 113.862 59.5643C106.147 59.5643 100.333 54.2468 100.187 45.0887H125.234H125.271ZM130.682 12.3339C132.327 12.3339 135.655 12.2231 136.679 11.2261H136.898V58.2719C138.726 58.7888 140.628 59.1581 142.529 59.1581C149.988 59.1581 154.266 53.8775 154.266 46.5289C154.266 39.1803 150.939 33.7519 144.101 33.7519C141.944 33.7519 140.225 34.3428 138.397 35.3767L142.054 29.0252C143.626 28.4343 145.235 28.2128 146.88 28.2128C154.632 28.2128 161.214 35.0075 161.214 45.1626C161.214 56.8317 153.389 64.328 141.066 64.328C136.459 64.328 132.035 63.5156 128.671 62.9986V62.777C130.938 61.7431 130.719 59.2689 130.719 56.8317V22.6736C130.719 19.2394 131.121 14.4388 128.196 12.5555V12.3339H130.719H130.682ZM173.28 40.7682C174.084 36.1153 177.521 33.1242 182.092 33.1242C186.992 33.1242 190.136 35.5614 190.904 40.7682H173.28ZM198.071 45.0887C198.363 35.4875 192.001 28.2497 182.714 28.2497C172.549 28.2497 165.638 35.7091 165.638 46.0488C165.638 56.3886 173.609 64.4019 185.237 64.4019C188.454 64.4019 191.708 63.8849 194.67 62.5555L198.071 55.5761H197.851C194.707 58.2719 190.758 59.5643 186.663 59.5643C178.947 59.5643 173.134 54.2468 173.024 45.0887H198.071ZM228.602 36.8169H228.383C226.408 34.3428 223.117 33.1611 220.046 33.1611C213.428 33.1611 208.638 38.2571 208.638 45.3472C208.638 53.9144 215.256 59.6013 222.825 59.6013C226.299 59.6013 230.138 58.1242 232.807 55.9454H232.99L229.443 62.9986C226.591 64.1803 223.447 64.4757 220.412 64.4757C209.918 64.4757 201.691 57.0163 201.691 47.3044C201.691 34.4536 210.868 28.3236 221.18 28.3236C223.629 28.3236 226.152 28.619 228.566 29.2098V36.8538L228.602 36.8169ZM116.751 22.1197V14.6603C112.254 16.6914 108.122 20.458 105.343 24.1507V27.068C111.998 22.5259 116.751 22.3413 116.751 22.1197Z" fill="black"/>
<path d="M25.2662 59.3057C14.955 59.3057 7.78832 47.5628 7.78832 37.5923V36.4845C7.93458 26.8094 14.114 17.7622 24.9371 17.7622C36.3087 17.7622 42.1956 28.6189 42.2688 38.9217V39.9926C42.2688 50.9601 35.5043 59.3427 25.2662 59.3427M60.6242 70.7164C53.0188 71.9719 45.7058 69.5716 37.9176 60.5613C45.4499 56.7577 50.0936 47.2673 50.0936 38.4416V37.3338C49.9473 22.2673 38.722 12.2969 25.3759 12.2969C11.9933 12.2969 0.146315 22.6735 0.0366211 37.8508V38.8848C0.0366211 53.6558 10.8963 64.6233 24.2058 64.6233C26.1072 64.6233 27.972 64.3279 29.8002 63.8848C38.5026 72.1565 46.2909 75.6647 53.0188 74.8153C56.1999 74.4461 59.5638 73.1536 61.6114 70.4948L60.6608 70.6425L60.6242 70.7164Z" fill="black"/>
<path d="M249.188 25.6278H290.579V0H249.188V25.6278ZM279.975 14.7341C279.463 16.322 278.586 16.8759 278.33 16.8759C278.33 16.8759 278.732 15.1403 277.489 14.2171C276.319 13.3678 274.856 13.8848 274.198 14.8818C273.577 15.842 273.467 17.1344 273.467 17.1344H275.624V18.7592H271.273C271.273 18.7592 271.383 21.0487 273.759 20.7903C273.759 20.7903 273.467 22.5997 271.273 21.6396C271.273 21.6396 271.383 23.5229 269.884 24.4461C268.384 23.5229 268.494 21.6396 268.494 21.6396C266.3 22.5628 266.008 20.7903 266.008 20.7903C268.384 21.0118 268.494 18.7592 268.494 18.7592H264.143V17.1344H266.3C266.3 17.1344 266.191 15.842 265.569 14.8818C264.911 13.8848 263.448 13.3678 262.278 14.2171C261.035 15.1034 261.437 16.8759 261.437 16.8759C261.181 16.8759 260.304 16.3589 259.792 14.7341C258.841 11.7061 261.803 8.78877 264.801 10.4874C266.922 11.6691 267.799 14.3279 267.799 17.1344H268.933C268.896 17.356 269.189 15.0295 268.75 13.2939C268.421 12.1123 268.019 10.8567 267.287 9.34269C266.666 8.01329 266.41 5.79764 267.763 4.13589C268.896 2.69572 269.554 1.88331 269.884 1.32939C270.176 1.88331 270.871 2.69572 272.004 4.13589C273.321 5.79764 273.101 8.01329 272.443 9.34269C271.712 10.8567 271.31 12.1123 270.981 13.2939C270.542 15.0295 270.834 17.356 270.798 17.1344H271.931C271.931 14.3279 272.809 11.6322 274.929 10.4874C277.928 8.78877 280.89 11.7061 279.939 14.7341M302.609 25.6278H344V0H302.609V25.6278ZM333.396 14.7341C332.884 16.322 332.007 16.8759 331.787 16.8759C331.787 16.8759 332.19 15.1403 330.946 14.2171C329.776 13.3678 328.314 13.8848 327.619 14.8818C326.998 15.842 326.888 17.1344 326.888 17.1344H329.045V18.7592H324.694C324.694 18.7592 324.804 21.0487 327.18 20.7903C327.18 20.7903 326.888 22.5997 324.694 21.6396C324.694 21.6396 324.804 23.5229 323.304 24.4461C321.805 23.5229 321.915 21.6396 321.915 21.6396C319.721 22.5628 319.429 20.7903 319.429 20.7903C321.805 21.0118 321.915 18.7592 321.915 18.7592H317.6V17.1344H319.758C319.758 17.1344 319.648 15.842 319.026 14.8818C318.368 13.8848 316.906 13.3678 315.736 14.2171C314.492 15.1034 314.895 16.8759 314.895 16.8759C314.639 16.8759 313.761 16.3589 313.286 14.7341C312.335 11.7061 315.297 8.78877 318.295 10.4874C320.416 11.6691 321.257 14.3279 321.257 17.1344H322.427C322.427 17.356 322.683 15.0295 322.244 13.2939C321.915 12.1123 321.513 10.8567 320.782 9.34269C320.16 8.01329 319.904 5.79764 321.257 4.13589C322.39 2.69572 323.049 1.88331 323.378 1.32939C323.67 1.88331 324.365 2.69572 325.498 4.13589C326.815 5.79764 326.595 8.01329 325.937 9.34269C325.242 10.8567 324.804 12.1123 324.475 13.2939C324.036 15.0295 324.328 17.356 324.292 17.1344H325.425C325.425 14.3279 326.303 11.6322 328.387 10.4874C331.385 8.78877 334.347 11.7061 333.433 14.7341M249.188 63.4047H290.579V37.8139H249.188V63.4047ZM279.975 52.548C279.463 54.1359 278.586 54.6529 278.33 54.6529C278.33 54.6529 278.732 52.9173 277.489 52.031C276.319 51.1817 274.856 51.6987 274.198 52.6957C273.577 53.6558 273.467 54.9483 273.467 54.9483H275.624V56.5731H271.273C271.273 56.5731 271.383 58.8626 273.759 58.6411C273.759 58.6411 273.467 60.4136 271.273 59.4904C271.273 59.4904 271.383 61.3737 269.884 62.2969C268.384 61.3368 268.494 59.4904 268.494 59.4904C266.3 60.4136 266.008 58.6411 266.008 58.6411C268.384 58.8626 268.494 56.5731 268.494 56.5731H264.143V54.9483H266.3C266.3 54.9483 266.191 53.6558 265.569 52.6957C264.911 51.6987 263.448 51.2186 262.278 52.031C261.035 52.9173 261.437 54.6529 261.437 54.6529C261.181 54.6529 260.304 54.1359 259.792 52.548C258.841 49.5199 261.803 46.6027 264.801 48.3013C266.922 49.483 267.799 52.1418 267.799 54.9483H268.933C268.896 55.1699 269.189 52.8434 268.75 51.1078C268.421 49.9261 268.019 48.6706 267.287 47.1566C266.666 45.8272 266.41 43.6115 267.763 41.9498C268.896 40.5096 269.554 39.6972 269.884 39.1433C270.176 39.6972 270.871 40.5096 272.004 41.9498C273.321 43.6115 273.101 45.8272 272.443 47.1566C271.712 48.6706 271.31 49.9261 270.981 51.1078C270.542 52.8434 270.834 55.1699 270.798 54.9483H271.931C271.931 52.1418 272.809 49.4461 274.929 48.3013C277.928 46.6027 280.89 49.5199 279.939 52.548M302.609 63.4047H344V37.8139H302.609V63.4047ZM333.396 52.548C332.884 54.1359 332.007 54.6529 331.787 54.6529C331.787 54.6529 332.19 52.9173 330.946 52.031C329.776 51.1817 328.314 51.6987 327.619 52.6957C326.998 53.6558 326.888 54.9483 326.888 54.9483H329.045V56.5731H324.694C324.694 56.5731 324.804 58.8626 327.18 58.6411C327.18 58.6411 326.888 60.4136 324.694 59.4904C324.694 59.4904 324.804 61.3737 323.304 62.2969C321.805 61.3368 321.915 59.4904 321.915 59.4904C319.721 60.4136 319.429 58.6411 319.429 58.6411C321.805 58.8626 321.915 56.5731 321.915 56.5731H317.6V54.9483H319.758C319.758 54.9483 319.648 53.6558 319.026 52.6957C318.368 51.6987 316.906 51.2186 315.736 52.031C314.492 52.9173 314.895 54.6529 314.895 54.6529C314.639 54.6529 313.761 54.1359 313.286 52.548C312.335 49.5199 315.297 46.6027 318.295 48.3013C320.416 49.483 321.257 52.1418 321.257 54.9483H322.427C322.427 55.1699 322.683 52.8434 322.244 51.1078C321.915 49.9261 321.513 48.6706 320.782 47.1566C320.16 45.8272 319.904 43.6115 321.257 41.9498C322.39 40.5096 323.049 39.6972 323.378 39.1433C323.67 39.6972 324.365 40.5096 325.498 41.9498C326.815 43.6115 326.595 45.8272 325.937 47.1566C325.242 48.6706 324.804 49.9261 324.475 51.1078C324.036 52.8434 324.328 55.1699 324.292 54.9483H325.425C325.425 52.1418 326.303 49.4461 328.387 48.3013C331.385 46.6027 334.347 49.5199 333.433 52.548" fill="black"/>
</g>
<defs>
<clipPath id="clip0_165_130">
<rect width="344" height="75" fill="white"/>
</clipPath>
</defs>
</svg>
