<svg width="751" height="751" viewBox="0 0 751 751" fill="none" xmlns="http://www.w3.org/2000/svg">
<path d="M750.438 0H0V750.438H750.438V0Z" fill="#FFFFAB"/>
<path d="M712.015 628.576L641.025 509.416V204.2C641.025 161.114 605.772 125.861 562.686 125.861H179.753C136.666 125.861 101.414 161.114 101.414 204.2V550.237C101.414 593.324 136.667 628.576 179.753 628.576H712.015Z" fill="#1AAA54"/>
<path d="M175.944 452.701V297.756C175.944 223.115 215.066 183.992 285.075 183.992C351.48 183.992 389.059 216.937 389.059 283.857V320.919L315.447 334.819V285.915C315.447 255.544 305.151 240.101 283.531 240.101C261.395 240.101 249.556 256.06 249.556 291.578V456.82C249.556 491.824 261.395 510.355 283.531 510.355C304.636 510.355 315.962 494.398 315.962 464.541V409.977L389.06 424.905V464.542C389.06 531.462 349.422 566.981 283.532 566.981C213.523 566.981 175.945 528.889 175.945 452.702L175.944 452.701Z" fill="#1D1D1B"/>
<path d="M419.425 192.742H490.979V495.428H581.064V558.231H419.425V192.742Z" fill="#1D1D1B"/>
</svg>
